<svg xmlns="http://www.w3.org/2000/svg" width="24" height="24" viewBox="0 0 24 24" fill="none">
  <g clip-path="url(#clip0_35_105)">
    <path d="M13.0083 24C11.9052 23.9958 10.8484 23.5557 10.0684 22.7756C9.28834 21.9956 8.84824 20.9388 8.84402 19.8357C8.84402 17.8657 11.727 12.6283 12.3036 11.5872C12.3812 11.4716 12.4861 11.3768 12.609 11.3113C12.7319 11.2458 12.8691 11.2116 13.0083 11.2116C13.1476 11.2116 13.2847 11.2458 13.4076 11.3113C13.5305 11.3768 13.6354 11.4716 13.713 11.5872C14.2896 12.6283 17.1726 17.8657 17.1726 19.8357C17.1684 20.9388 16.7283 21.9956 15.9483 22.7756C15.1682 23.5557 14.1115 23.9958 13.0083 24ZM13.0083 13.6693C11.8649 15.5923 11.002 17.6687 10.4457 19.8357C10.4457 20.5154 10.7157 21.1672 11.1963 21.6478C11.6768 22.1284 12.3287 22.3983 13.0083 22.3983C13.688 22.3983 14.3398 22.1284 14.8204 21.6478C15.301 21.1672 15.571 20.5154 15.571 19.8357C15.0147 17.6687 14.1517 15.5923 13.0083 13.6693ZM8.20336 12.7884C7.3538 12.7884 6.53902 12.4509 5.93829 11.8502C5.33755 11.2495 5.00006 10.4347 5.00006 9.58514C5.00006 8.12764 7.08221 4.33172 7.49864 3.57894C7.57628 3.46333 7.68117 3.36859 7.80407 3.30308C7.92697 3.23757 8.0641 3.2033 8.20336 3.2033C8.34263 3.2033 8.47976 3.23757 8.60266 3.30308C8.72556 3.36859 8.83045 3.46333 8.90809 3.57894C9.32452 4.33172 11.4067 8.12764 11.4067 9.58514C11.4067 10.4347 11.0692 11.2495 10.4684 11.8502C9.8677 12.4509 9.05293 12.7884 8.20336 12.7884ZM8.20336 5.67711C7.48519 6.89641 6.9458 8.21252 6.60171 9.58514C6.60171 10.0099 6.77046 10.4173 7.07083 10.7177C7.37119 11.018 7.77858 11.1868 8.20336 11.1868C8.62815 11.1868 9.03553 11.018 9.3359 10.7177C9.63627 10.4173 9.80502 10.0099 9.80502 9.58514C9.46093 8.21252 8.92154 6.89641 8.20336 5.67711ZM16.2116 9.58514C15.3621 9.58514 14.5473 9.24765 13.9465 8.64691C13.3458 8.04618 13.0083 7.2314 13.0083 6.38183C13.0083 4.92433 15.0905 1.12842 15.5069 0.375642C15.5845 0.260024 15.6894 0.165283 15.8123 0.099774C15.9352 0.0342651 16.0724 0 16.2116 0C16.3509 0 16.488 0.0342651 16.6109 0.099774C16.7338 0.165283 16.8387 0.260024 16.9163 0.375642C17.3328 1.12842 19.4149 4.92433 19.4149 6.38183C19.4149 7.2314 19.0774 8.04618 18.4767 8.64691C17.876 9.24765 17.0612 9.58514 16.2116 9.58514ZM16.2116 2.47381C15.4934 3.69311 14.9541 5.00922 14.61 6.38183C14.61 6.80662 14.7787 7.214 15.0791 7.51437C15.3795 7.81474 15.7868 7.98349 16.2116 7.98349C16.6364 7.98349 17.0438 7.81474 17.3442 7.51437C17.6445 7.214 17.8133 6.80662 17.8133 6.38183C17.4692 5.00922 16.9298 3.69311 16.2116 2.47381Z" fill="#32ADF3"/>
  </g>
  <defs>
    <clipPath id="clip0_35_105">
      <rect width="24" height="24" fill="white"/>
    </clipPath>
  </defs>
</svg>