<svg xmlns="http://www.w3.org/2000/svg" width="24" height="24" viewBox="0 0 24 24" fill="none">
  <g clip-path="url(#clip0_35_63)">
    <path d="M12 18.375C10.7391 18.375 9.50661 18.0011 8.45824 17.3006C7.40988 16.6001 6.59278 15.6045 6.11027 14.4396C5.62776 13.2747 5.50152 11.9929 5.7475 10.7563C5.99348 9.51967 6.60064 8.38376 7.4922 7.4922C8.38376 6.60064 9.51967 5.99348 10.7563 5.7475C11.9929 5.50152 13.2747 5.62776 14.4396 6.11027C15.6045 6.59278 16.6001 7.40988 17.3006 8.45824C18.0011 9.50661 18.375 10.7391 18.375 12C18.3731 13.6902 17.7009 15.3106 16.5057 16.5057C15.3106 17.7009 13.6902 18.3731 12 18.375ZM12 6.375C10.8875 6.375 9.79995 6.7049 8.87492 7.32299C7.94989 7.94107 7.22892 8.81957 6.80318 9.84741C6.37744 10.8752 6.26604 12.0062 6.48309 13.0974C6.70013 14.1885 7.23586 15.1908 8.02253 15.9775C8.8092 16.7641 9.81148 17.2999 10.9026 17.5169C11.9938 17.734 13.1248 17.6226 14.1526 17.1968C15.1804 16.7711 16.0589 16.0501 16.677 15.1251C17.2951 14.2001 17.625 13.1125 17.625 12C17.6233 10.5087 17.0301 9.07892 15.9756 8.02439C14.9211 6.96986 13.4913 6.37669 12 6.375Z" fill="#F3B262"/>
    <path d="M12.375 0.75H11.625V6H12.375V0.75Z" fill="#F3B262"/>
    <path d="M9.83873 2.48507L9.11429 2.67918L10.0849 6.30141L10.8093 6.10729L9.83873 2.48507Z" fill="#F3B262"/>
    <path d="M6.6999 2.06932L6.05038 2.44432L8.67538 6.99095L9.3249 6.61595L6.6999 2.06932Z" fill="#F3B262"/>
    <path d="M5.37124 4.84053L4.84091 5.37086L7.49256 8.02251L8.02289 7.49218L5.37124 4.84053Z" fill="#F3B262"/>
    <path d="M2.44455 6.05024L2.06955 6.69976L6.61618 9.32476L6.99118 8.67524L2.44455 6.05024Z" fill="#F3B262"/>
    <path d="M2.67916 9.11363L2.48505 9.83807L6.10727 10.8086L6.30138 10.0842L2.67916 9.11363Z" fill="#F3B262"/>
    <path d="M6 11.625H0.75V12.375H6V11.625Z" fill="#F3B262"/>
    <path d="M6.10709 13.1907L2.48486 14.1613L2.67898 14.8857L6.3012 13.9152L6.10709 13.1907Z" fill="#F3B262"/>
    <path d="M6.61656 14.6756L2.0697 17.3002L2.44465 17.9497L6.99151 15.3251L6.61656 14.6756Z" fill="#F3B262"/>
    <path d="M7.49217 15.9771L4.84052 18.6288L5.37085 19.1591L8.0225 16.5074L7.49217 15.9771Z" fill="#F3B262"/>
    <path d="M8.67471 17.0089L6.05011 21.5558L6.69966 21.9307L9.32426 17.3839L8.67471 17.0089Z" fill="#F3B262"/>
    <path d="M10.0848 17.6991L9.11426 21.3213L9.8387 21.5154L10.8093 17.8932L10.0848 17.6991Z" fill="#F3B262"/>
    <path d="M12.375 18H11.625V23.25H12.375V18Z" fill="#F3B262"/>
    <path d="M13.9149 17.6986L13.1905 17.8927L14.161 21.5149L14.8855 21.3208L13.9149 17.6986Z" fill="#F3B262"/>
    <path d="M15.3251 17.0085L14.6756 17.3835L17.3006 21.9302L17.9501 21.5552L15.3251 17.0085Z" fill="#F3B262"/>
    <path d="M16.5074 15.9775L15.9771 16.5078L18.6288 19.1595L19.1591 18.6291L16.5074 15.9775Z" fill="#F3B262"/>
    <path d="M17.3838 14.6752L17.0088 15.3248L21.5555 17.9498L21.9305 17.3002L17.3838 14.6752Z" fill="#F3B262"/>
    <path d="M17.8922 13.1905L17.6981 13.915L21.3203 14.8855L21.5144 14.1611L17.8922 13.1905Z" fill="#F3B262"/>
    <path d="M23.25 11.625H18V12.375H23.25V11.625Z" fill="#F3B262"/>
    <path d="M21.3205 9.11427L17.6983 10.0848L17.8924 10.8093L21.5146 9.83871L21.3205 9.11427Z" fill="#F3B262"/>
    <path d="M21.5556 6.05042L17.0087 8.67503L17.3837 9.32458L21.9305 6.69997L21.5556 6.05042Z" fill="#F3B262"/>
    <path d="M18.6292 4.8409L15.9775 7.49255L16.5078 8.02288L19.1595 5.37123L18.6292 4.8409Z" fill="#F3B262"/>
    <path d="M17.2997 2.06966L14.6751 6.61652L15.3247 6.99147L17.9493 2.4446L17.2997 2.06966Z" fill="#F3B262"/>
    <path d="M14.1612 2.48533L13.1906 6.10755L13.9151 6.30167L14.8856 2.67944L14.1612 2.48533Z" fill="#F3B262"/>
  </g>
  <defs>
    <clipPath id="clip0_35_63">
      <rect width="24" height="24" fill="white"/>
    </clipPath>
  </defs>
</svg>