<svg xmlns="http://www.w3.org/2000/svg" width="104" height="105" viewBox="0 0 104 105" fill="none">
  <path d="M92.1862 64.2975C92.6031 64.5955 92.8908 65.0412 92.9907 65.5439C93.0906 66.0465 92.9953 66.5684 92.724 67.0032C92.4528 67.438 92.026 67.7531 91.5307 67.8845C91.0353 68.0158 90.5085 67.9534 90.0575 67.71L87.295 66.215C87.0588 66.0877 86.8526 65.9114 86.69 65.6979C86.5274 65.4845 86.4123 65.2388 86.3523 64.9773C86.2923 64.7158 86.2889 64.4445 86.3421 64.1815C86.3954 63.9186 86.5042 63.67 86.6612 63.4525C86.7846 63.2132 86.9543 63.0007 87.1605 62.8275C87.3666 62.6544 87.6052 62.5239 87.8623 62.4438C88.1193 62.3636 88.3897 62.3354 88.6578 62.3607C88.9259 62.386 89.1862 62.4644 89.4237 62.5912L92.1862 64.2975ZM34.5637 35.8112C34.0881 35.5007 33.7406 35.0287 33.5854 34.4823C33.4301 33.9359 33.4775 33.3518 33.7187 32.8375C34.0087 32.3964 34.4567 32.0832 34.9705 31.9623C35.4844 31.8414 36.025 31.922 36.4812 32.1875L39.455 33.8937C39.8574 34.1909 40.1338 34.6281 40.2296 35.119C40.3254 35.61 40.2336 36.1191 39.9723 36.5457C39.7111 36.9722 39.2994 37.2854 38.8185 37.4232C38.3376 37.561 37.8225 37.5135 37.375 37.29L34.5637 35.8112ZM45.6137 23.25C45.3704 22.799 45.308 22.2722 45.4393 21.7768C45.5706 21.2814 45.8857 20.8547 46.3205 20.5835C46.7554 20.3122 47.2772 20.2168 47.7798 20.3167C48.2825 20.4167 48.7282 20.7043 49.0262 21.1212L50.6512 23.8837C50.854 24.1135 51.0039 24.385 51.0904 24.679C51.1769 24.9729 51.1978 25.2823 51.1518 25.5853C51.1058 25.8883 50.994 26.1774 50.8241 26.4325C50.6543 26.6876 50.4306 26.9023 50.1688 27.0616C49.9069 27.2208 49.6134 27.3207 49.3088 27.3543C49.0042 27.3878 48.696 27.3542 48.4058 27.2557C48.1156 27.1572 47.8505 26.9963 47.6292 26.7844C47.4079 26.5724 47.2358 26.3144 47.125 26.0287L45.6137 23.25ZM61.36 17.9362C61.3354 17.6696 61.366 17.4008 61.4498 17.1465C61.5337 16.8921 61.669 16.6578 61.8474 16.4581C62.0257 16.2584 62.2433 16.0976 62.4866 15.9856C62.7298 15.8737 62.9935 15.8131 63.2612 15.8075C63.5457 15.7883 63.8311 15.8302 64.098 15.9304C64.365 16.0306 64.6075 16.1867 64.8091 16.3884C65.0107 16.59 65.1669 16.8325 65.2671 17.0994C65.3673 17.3664 65.4092 17.6517 65.39 17.9362V21.1862C65.3731 21.7395 65.1414 22.2644 64.744 22.6497C64.3466 23.0349 63.8147 23.2503 63.2612 23.25C62.7341 23.2008 62.245 22.954 61.8924 22.5592C61.5397 22.1643 61.3495 21.6506 61.36 21.1212V17.9362ZM77.7237 21.1862C78.0313 20.8124 78.4632 20.5617 78.9404 20.4802C79.4177 20.3986 79.9083 20.4916 80.3226 20.7422C80.7369 20.9927 81.0471 21.384 81.1965 21.8445C81.3459 22.305 81.3245 22.804 81.1362 23.25L79.625 26.0287C79.3168 26.5071 78.8449 26.8567 78.2975 27.0122C77.7502 27.1678 77.1649 27.1185 76.6512 26.8737C76.1944 26.5459 75.8763 26.0594 75.7591 25.5095C75.6419 24.9595 75.734 24.3856 76.0175 23.9L77.7237 21.1862ZM90.0575 32.2362C90.2799 32.0921 90.5292 31.9943 90.7904 31.949C91.0516 31.9036 91.3193 31.9115 91.5773 31.9722C91.8354 32.0329 92.0785 32.1452 92.292 32.3023C92.5056 32.4594 92.6852 32.658 92.82 32.8862C92.9809 33.1208 93.0924 33.3856 93.1478 33.6646C93.2031 33.9437 93.201 34.231 93.1417 34.5092C93.0824 34.7874 92.9672 35.0506 92.8029 35.2829C92.6386 35.5151 92.4288 35.7115 92.1862 35.86L89.4237 37.3387C89.203 37.4859 88.9545 37.5865 88.6935 37.6343C88.4326 37.6822 88.1646 37.6762 87.906 37.6169C87.6474 37.5576 87.4036 37.4461 87.1896 37.2893C86.9755 37.1325 86.7958 36.9337 86.6612 36.705C86.4931 36.4914 86.3749 36.2428 86.3153 35.9776C86.2558 35.7123 86.2565 35.4371 86.3173 35.1721C86.3781 34.9072 86.4974 34.6592 86.6666 34.4464C86.8358 34.2336 87.0505 34.0614 87.295 33.9425L90.0575 32.2362ZM95.3712 47.9825C95.6514 47.964 95.9324 48.0047 96.1958 48.102C96.4592 48.1993 96.6991 48.3511 96.8999 48.5473C97.1008 48.7435 97.258 48.9799 97.3614 49.241C97.4648 49.502 97.512 49.782 97.5 50.0625C97.4944 50.3302 97.4338 50.5939 97.3218 50.8372C97.2099 51.0804 97.0491 51.298 96.8493 51.4764C96.6496 51.6548 96.4153 51.7901 96.161 51.8739C95.9067 51.9578 95.6379 51.9883 95.3712 51.9637H92.1212C91.5919 51.9742 91.0782 51.784 90.6833 51.4314C90.2884 51.0787 90.0416 50.5897 89.9925 50.0625C89.9925 49.4979 90.2168 48.9565 90.616 48.5572C91.0152 48.158 91.5566 47.9338 92.1212 47.9338L95.3712 47.9825Z" fill="url(#paint0_linear_22_380)"/>
  <path fill-rule="evenodd" clip-rule="evenodd" d="M43.8914 42.4282C47.7385 43.0382 51.4008 44.494 54.6125 46.6899C58.5004 49.4064 61.6084 53.0875 63.6287 57.3685L65.1204 57.1563C69.5788 57.1534 73.8726 58.8337 77.1365 61.8588C78.4477 62.8584 79.5597 64.0933 80.4152 65.5C80.202 65.0591 79.7758 64.4223 79.5627 63.9978L79.7758 64.2101C80.4817 63.4677 81.0382 62.5975 81.4151 61.6465C82.4497 59.988 83.2392 58.1898 83.7593 56.3072C84.4947 53.6307 84.685 50.8346 84.319 48.0837C83.953 45.3328 83.0381 42.6826 81.6282 40.2892C78.8004 35.4639 74.1765 31.9438 68.7597 30.4923C66.105 29.7549 63.3272 29.5643 60.596 29.9321C57.8649 30.2999 55.2377 31.2183 52.8748 32.6313C48.7943 34.7188 45.601 38.1949 43.875 42.4282H43.8914Z" fill="url(#paint1_linear_22_380)"/>
  <g filter="url(#filter0_d_22_380)">
    <path fill-rule="evenodd" clip-rule="evenodd" d="M82.615 71.1062C83.1208 71.2191 83.6199 71.3601 84.11 71.5287C83.6875 71.5287 83.2487 71.3175 82.615 71.3175V71.1062ZM65 61.535C65.2113 62.1688 65.2113 62.8187 65.4225 63.16C65.6594 64.7098 65.8005 66.2728 65.845 67.84C65.8088 69.1223 65.6675 70.3995 65.4225 71.6587C65.242 72.9573 64.9594 74.2396 64.5775 75.4937C64.5212 75.7888 64.3996 76.0675 64.2217 76.3095C64.0438 76.5515 63.814 76.7507 63.5492 76.8924C63.2844 77.0342 62.9912 77.115 62.6912 77.1288C62.3911 77.1427 62.0918 77.0893 61.815 76.9725C61.5297 76.8987 61.2626 76.7668 61.0305 76.5852C60.7984 76.4035 60.6062 76.176 60.4659 75.9168C60.3256 75.6576 60.2403 75.3723 60.2152 75.0786C60.1901 74.7849 60.2258 74.4893 60.32 74.21C60.7458 73.1792 60.9666 72.0753 60.97 70.96C61.2174 69.8932 61.359 68.8046 61.3925 67.71C61.3562 66.4223 61.2149 65.1397 60.97 63.875C60.7728 62.7714 60.4903 61.6849 60.125 60.625C59.9138 60.4137 59.9137 60.4137 59.9137 60.2025C58.4189 56.1855 55.6585 52.7635 52.0487 50.4525C48.5633 47.9875 44.4064 46.6492 40.1375 46.6175C34.7064 46.5784 29.4688 48.6327 25.5125 52.3537C21.7167 56.1006 19.3829 61.0793 18.9312 66.3937L18.72 68.5225H16.705C15.3412 68.5394 13.9955 68.8367 12.7515 69.3958C11.5075 69.9549 10.3918 70.7639 9.47375 71.7725C8.49454 72.6918 7.72275 73.8095 7.20994 75.0509C6.69713 76.2923 6.45509 77.6289 6.5 78.9712C6.58714 81.6613 7.64321 84.2294 9.47375 86.2025C10.4511 87.1725 11.6137 87.9357 12.8924 88.4466C14.1711 88.9576 15.5396 89.2057 16.9162 89.1763C37.7487 89.1763 60.0763 88.3312 80.9088 89.1763C81.7972 89.1861 82.6769 89.0005 83.4856 88.6327C84.2944 88.2648 85.0124 87.7236 85.5887 87.0475C86.2354 86.4584 86.7429 85.7329 87.0745 84.9234C87.4062 84.114 87.5536 83.241 87.5062 82.3675C87.528 81.4681 87.3695 80.5734 87.0402 79.7362C86.7109 78.899 86.2174 78.1361 85.5887 77.4925C84.2333 76.3128 82.51 75.6408 80.7137 75.5912H78.7963L78.585 73.625C78.1154 70.2513 76.4556 67.1564 73.905 64.8988C71.3948 62.8158 68.2604 61.6318 65 61.535Z" fill="url(#paint2_linear_22_380)" shape-rendering="crispEdges"/>
  </g>
  <defs>
    <filter id="filter0_d_22_380" x="5.49472" y="46.6169" width="83.0202" height="44.5616" filterUnits="userSpaceOnUse" color-interpolation-filters="sRGB">
      <feFlood flood-opacity="0" result="BackgroundImageFix"/>
      <feColorMatrix in="SourceAlpha" type="matrix" values="0 0 0 0 0 0 0 0 0 0 0 0 0 0 0 0 0 0 127 0" result="hardAlpha"/>
      <feOffset dy="1"/>
      <feGaussianBlur stdDeviation="0.5"/>
      <feComposite in2="hardAlpha" operator="out"/>
      <feColorMatrix type="matrix" values="0 0 0 0 0.101961 0 0 0 0 0.101961 0 0 0 0 0.101961 0 0 0 0.05 0"/>
      <feBlend mode="normal" in2="BackgroundImageFix" result="effect1_dropShadow_22_380"/>
      <feBlend mode="normal" in="SourceGraphic" in2="effect1_dropShadow_22_380" result="shape"/>
    </filter>
    <linearGradient id="paint0_linear_22_380" x1="65.4987" y1="15.803" x2="65.4987" y2="67.9517" gradientUnits="userSpaceOnUse">
      <stop stop-color="#F8E646" stop-opacity="0.8"/>
      <stop offset="0.0001" stop-color="#F8E646" stop-opacity="0.8"/>
      <stop offset="0.9999" stop-color="#EC8036" stop-opacity="0.8"/>
      <stop offset="1" stop-color="#EC7C35" stop-opacity="0.8"/>
    </linearGradient>
    <linearGradient id="paint1_linear_22_380" x1="67.4375" y1="20.8125" x2="86.9375" y2="77.6875" gradientUnits="userSpaceOnUse">
      <stop stop-color="#F8E646" stop-opacity="0.8"/>
      <stop offset="0.0001" stop-color="#F8E646" stop-opacity="0.8"/>
      <stop offset="1" stop-color="#EC7C35" stop-opacity="0.8"/>
      <stop offset="1" stop-color="#EC8036" stop-opacity="0.8"/>
    </linearGradient>
    <linearGradient id="paint2_linear_22_380" x1="47.0048" y1="29.7913" x2="55.25" y2="111" gradientUnits="userSpaceOnUse">
      <stop stop-color="white"/>
      <stop offset="0.642361" stop-color="#F9FBFD" stop-opacity="0.597294"/>
      <stop offset="0.797556" stop-color="#F7FAFD" stop-opacity="0.5"/>
      <stop offset="1" stop-color="#E8F1F8" stop-opacity="0.25"/>
    </linearGradient>
  </defs>
</svg>