<svg xmlns="http://www.w3.org/2000/svg" width="24" height="24" viewBox="0 0 24 24" fill="none">
  <g clip-path="url(#clip0_35_143)">
    <path d="M12.1392 18.0308C12.2818 18.4164 12.5273 18.7556 12.8491 19.0115C13.171 19.2674 13.5567 19.4303 13.9646 19.4824C14.3724 19.5345 14.7868 19.4739 15.1626 19.3071C15.5384 19.1403 15.8613 18.8737 16.0963 18.5363C16.3313 18.1989 16.4693 17.8036 16.4955 17.3933C16.5216 16.9829 16.4348 16.5733 16.2445 16.2088C16.0542 15.8443 15.7677 15.539 15.4161 15.3259C15.0644 15.1127 14.6612 15 14.25 15H3.75M9.13917 5.9692C9.28179 5.58357 9.52733 5.24438 9.84915 4.98847C10.171 4.73256 10.5567 4.56971 10.9646 4.51761C11.3724 4.46551 11.7868 4.52614 12.1626 4.69293C12.5384 4.85972 12.8613 5.12629 13.0963 5.46368C13.3313 5.80108 13.4693 6.19641 13.4955 6.60674C13.5216 7.01707 13.4348 7.42671 13.2445 7.79119C13.0542 8.15566 12.7677 8.46104 12.4161 8.67415C12.0644 8.88725 11.6612 8.99995 11.25 9H2.25M17.3892 8.9692C17.5318 8.58357 17.7773 8.24438 18.0991 7.98847C18.421 7.73256 18.8067 7.56971 19.2146 7.51761C19.6224 7.46551 20.0368 7.52614 20.4126 7.69293C20.7884 7.85972 21.1113 8.12629 21.3463 8.46368C21.5813 8.80108 21.7193 9.19641 21.7455 9.60674C21.7716 10.0171 21.6848 10.4267 21.4945 10.7912C21.3042 11.1557 21.0177 11.461 20.6661 11.6741C20.3144 11.8873 19.9112 12 19.5 12H3" stroke="#5832F3" stroke-width="1.5" stroke-linecap="round" stroke-linejoin="round"/>
  </g>
  <defs>
    <clipPath id="clip0_35_143">
      <rect width="24" height="24" fill="white"/>
    </clipPath>
  </defs>
</svg>